<svg xmlns="http://www.w3.org/2000/svg" width="389.333" height="389.333" preserveAspectRatio="xMidYMid meet" version="1.0" viewBox="0 0 292 292"><metadata>Created by potrace 1.11, written by Peter Selinger 2001-2013</metadata><g fill="#000" stroke="none"><path d="M210 2693 c0 -68 17 -168 48 -283 29 -107 122 -257 224 -357 212 -209 498 -341 741 -343 l57 0 0 -260 0 -260 -62 0 c-233 0 -538 -142 -739 -343 -107 -108 -201 -266 -229 -387 -7 -30 -16 -68 -21 -84 -5 -15 -12 -71 -15 -122 l-7 -94 185 0 184 0 13 91 c7 51 17 104 21 118 4 14 14 46 21 71 65 219 358 446 584 453 l60 2 3 -367 2 -368 180 0 180 0 0 364 c0 362 0 365 21 371 42 14 221 -32 288 -72 132 -81 208 -148 263 -231 80 -120 107 -202 125 -375 l5 -57 187 2 186 3 -1 55 c-2 93 -34 242 -70 328 -58 135 -103 201 -207 304 -198 196 -498 338 -717 338 -31 0 -61 5 -68 12 -13 13 -18 461 -6 492 4 11 19 16 53 16 120 0 270 39 411 108 65 31 215 124 230 141 3 4 31 28 63 55 178 151 287 381 314 664 l6 62 -191 0 -190 0 -5 -52 c-27 -265 -97 -396 -287 -542 -110 -83 -227 -131 -340 -137 l-65 -4 -3 368 -2 367 -180 0 -180 0 0 -364 c0 -201 -4 -367 -8 -370 -16 -10 -158 14 -212 36 -165 66 -330 208 -394 338 -41 85 -60 150 -78 274 l-12 86 -183 0 -183 0 0 -47z" transform="translate(0.000000,292.000000) scale(0.100000,-0.100000)"/></g></svg>